<?xml version="1.0" encoding="utf-8"?>
<!-- Generator: Adobe Illustrator 16.0.0, SVG Export Plug-In . SVG Version: 6.00 Build 0)  -->
<!DOCTYPE svg PUBLIC "-//W3C//DTD SVG 1.1//EN" "http://www.w3.org/Graphics/SVG/1.1/DTD/svg11.dtd">
<svg version="1.1" id="Camada_1" xmlns="http://www.w3.org/2000/svg" xmlns:xlink="http://www.w3.org/1999/xlink" x="0px" y="0px"
	 width="264.143px" height="58.922px" viewBox="165.459 391.695 264.143 58.922"
	 enable-background="new 165.459 391.695 264.143 58.922" xml:space="preserve">
<g id="PROPORÇ_x2DC_AO_E_REGRAS">
	<path fill="#FFFFFF" d="M250.587,423.666c-2.04,0-4.058,0.459-5.308,1.07V412.08c-1.988,0.738-4.109,1.762-5.865,3.192
		c-0.919,0.738-1.197,1.482-1.197,2.575v31.229c1.889,0.791,5.69,1.482,9.336,1.482c9.237,0,14.539-5.639,14.539-13.801
		C262.115,428.695,258.342,423.666,250.587,423.666z M247.983,444.814c-0.738,0-1.889,0-2.68-0.279v-14.184
		c0.971-0.512,2.349-0.791,4.11-0.791c3.546,0,5.406,2.447,5.406,7.068C254.82,441.472,252.599,444.814,247.983,444.814z
		 M280.13,423.898c-3.365,0-5.308,1.303-7.115,3.65c-0.18-1.197-0.407-2.168-0.79-3.365c-0.687-0.227-1.89-0.279-2.907-0.279
		c-0.971,0-2.221,0.105-2.86,0.279V450c0.866,0.227,2.273,0.279,3.547,0.279c1.197,0,2.778-0.105,3.546-0.279v-12.604
		c0-5.027,2.627-7.701,6.15-7.701c0.64,0,1.709,0,2.349,0.104c0.407-1.656,0.459-4.057,0.104-5.691
		C281.712,424.027,280.689,423.898,280.13,423.898z M190.862,436.548v13.16c0,0.332,0.256,0.588,0.587,0.588h3.651V433.41
		l-3.651,2.092C191.094,435.734,190.862,436.066,190.862,436.548z M194.559,404.226c-3.569,0-7.499,0.332-11.354,0.994
		c3.901-5.029,10.127-8.267,17.045-8.267c5.104,0,10.202,1.913,13.649,4.796c0.61,0.512,1.099,0.564,1.581,0.105
		c0.482-0.459,0.437-0.942-0.104-1.558c-4.487-5.203-11.074-8.726-18.853-8.598c-10.179,0.18-18.8,6.633-22.09,15.539
		c-3.012,0.942-5.768,2.063-8.215,3.418c-0.662,0.383-0.918,0.843-0.662,1.401c0.227,0.512,0.715,0.715,1.377,0.512
		c2.093-0.611,4.262-1.122,6.506-1.604c-0.228,1.174-0.384,2.401-0.384,3.674c-0.181,8.213,4.209,16.022,10.97,20.282
		c0.662,0.438,1.25,0.438,1.633-0.104c0.384-0.512,0.332-0.994-0.227-1.506c-4.284-3.854-6.685-9.592-6.685-15.254
		c0-2.86,0.563-5.639,1.656-8.138c2.244-0.18,4.668-0.332,7.348-0.332c17.376,0,32.043,5.738,32.043,13.242
		c0,3.803-4.819,7.605-10.563,10.156c-1.378,0.611-1.529,1.047-1.325,1.635c0.18,0.563,0.813,0.738,1.528,0.512
		c10.028-3.291,17.626-8.697,17.626-15.232C227.037,411.063,212.702,404.226,194.559,404.226z M201.575,429.689l-4.848,2.777v17.807
		h5.202c0.512,0,0.919-0.406,0.919-0.918v-19.033C202.855,429.636,202.162,429.357,201.575,429.689z M417.178,423.566
		c-7.935,0-12.37,5.408-12.37,13.574c0,8.268,4.668,13.447,12.37,13.447c7.988,0,12.424-5.309,12.424-13.447
		C429.602,428.921,425.137,423.566,417.178,423.566z M417.178,444.89c-3.93,0-5.127-3.191-5.127-7.756
		c0-4.441,1.197-7.859,5.127-7.859c4.059,0,5.18,3.32,5.18,7.859C422.358,441.908,421.027,444.89,417.178,444.89z M348.193,423.566
		c-7.628,0-12.324,5.129-12.324,13.674s4.946,13.342,13.445,13.342c2.907,0,6.046-0.512,8.034-1.482
		c0.407-1.656,0.407-3.826,0-5.488c-2.627,0.738-4.848,1.197-7.295,1.197c-3.931,0-6.656-1.482-7.244-5.639h16.074
		c0.227-0.639,0.279-2.732,0.279-3.598C359.191,427.904,354.854,423.566,348.193,423.566z M342.838,433.996
		c0.512-3.139,2.401-5.027,5.255-5.027c3.191,0,4.441,2.168,4.569,5.027H342.838z M397.378,444.761
		c-3.546,0-5.865-2.777-5.865-7.701c0-4.668,1.89-7.703,5.918-7.703c1.709,0,2.906,0.279,4.517,0.918
		c0.459-1.604,1.303-3.418,2.5-4.947c-2.221-1.145-4.39-1.762-7.936-1.762c-7.807,0-12.324,5.535-12.324,13.523
		c0,8.266,4.616,13.521,12.604,13.521c2.906,0,5.587-0.512,7.755-1.709c-0.971-1.25-2.04-2.959-2.68-4.947
		C399.878,444.716,399.041,444.761,397.378,444.761z M293.187,423.566c-2.778-0.051-5.255,0.279-7.627,0.867
		c-0.459,1.604-0.406,3.93,0,5.586c2.959-0.686,4.616-0.738,6.505-0.738c3.651,0,5.407,1.482,5.407,4.518v0.279
		c-1.07-0.105-2.401-0.227-3.319-0.227c-6.046,0-11.226,2.168-11.226,7.986c0,6.559,4.668,8.779,11.452,8.779
		c3.191,0,6.655-0.564,9.87-1.529v-14.771C304.238,427.212,300.407,423.742,293.187,423.566z M297.448,444.761
		c-0.407,0.105-2.169,0.279-3.012,0.279c-3.237,0-5.028-0.971-5.028-3.238c0-2.266,1.762-3.191,5.028-3.191
		c1.07,0,2.349,0.105,3.012,0.182V444.761z M324.823,417.875v6.226c-1.25-0.33-2.575-0.406-3.697-0.406
		c-7.807,0-13.114,5.256-13.114,13.621c0,8.545,5.18,13.289,13.289,13.289c3.697,0,7.348-0.512,10.615-1.605v-36.891
		c-1.988,0.738-4.11,1.761-5.866,3.191C325.108,416.039,324.823,416.777,324.823,417.875z M324.823,444.431
		c-1.197,0.33-2.04,0.406-3.011,0.406c-4.668,0-6.505-3.086-6.505-7.527c0-4.947,1.837-7.988,6.429-7.988
		c1.378,0,2.221,0.18,3.087,0.406V444.431z M375.387,434.687l-2.86-1.197c-1.657-0.686-2.628-1.25-2.628-2.348
		c0-1.658,1.482-1.988,3.419-1.988c1.941,0,3.93,0.227,6.656,1.068c0.331-1.889,0.331-3.65,0-5.307
		c-1.71-0.918-4.901-1.377-7.703-1.377c-5.487,0-9.645,2.959-9.645,7.4c0,3.98,1.71,5.992,6.506,7.934l2.221,0.92
		c2.115,0.865,2.731,1.377,2.731,2.732c0,2.039-2.04,2.4-3.749,2.4c-2.86,0-5.028-0.564-7.755-1.529c-0.46,1.656-0.46,3.824,0,5.535
		c2.349,1.248,5.534,1.656,8.905,1.656c5.407,0,9.743-2.861,9.743-7.988C381.258,438.384,379.421,436.396,375.387,434.687z"/>
</g>
</svg>
