<?xml version="1.0" encoding="utf-8"?>
<!-- Generator: Adobe Illustrator 16.0.0, SVG Export Plug-In . SVG Version: 6.00 Build 0)  -->
<!DOCTYPE svg PUBLIC "-//W3C//DTD SVG 1.1//EN" "http://www.w3.org/Graphics/SVG/1.1/DTD/svg11.dtd">
<svg version="1.1" id="Layer_1" xmlns="http://www.w3.org/2000/svg" xmlns:xlink="http://www.w3.org/1999/xlink" x="0px" y="0px"
	 width="250px" height="249.156px" viewBox="0 0 250 249.156" enable-background="new 0 0 250 249.156" xml:space="preserve">
<path fill="#CD0A2F" d="M245.244,213.65c-3.295-10.553-9.271-21.197-18.082-27.393c-16.955-12.01-36.709-18.415-55.811-25.273
	c-4.609-1.722-9.291-3.601-13.5-6.271c-3.76-2.386-5.172-7.272-6.045-11.565c-0.385-2.271-0.621-4.603-0.744-6.894
	c13.85-20.22,23.039-53.216,23.039-80.271c0-42.224-22.357-53.99-49.936-53.99c-27.582,0-49.936,11.75-49.936,53.973
	c0,28.023,9.852,62.398,24.537,82.367c-0.133,1.578-0.311,3.154-0.576,4.724c-0.875,4.293-2.283,9.091-6.041,11.474
	c-4.217,2.674-8.898,4.369-13.506,6.092c-19.102,6.856-38.855,12.904-55.805,24.914C14.021,191.73,8.05,203.097,4.757,213.65
	c-3.393,10.953-4.779,24.52-4.57,35.512h124.807h124.819C250.025,238.169,248.635,224.603,245.244,213.65z"/>
</svg>
